<svg width="900" height="444" viewBox="0 0 900 444" fill="none" xmlns="http://www.w3.org/2000/svg">
<path d="M0 399.802L15 404.279C30 408.677 60 417.632 90 422.973C120 428.314 150 430.199 180 428.864C210 427.529 240 423.13 270 420.224C300 417.317 330 416.061 360 415.747C390 415.511 420 416.296 450 418.81C480 421.245 510 425.486 540 422.816C570 420.224 600 410.798 630 410.641C660 410.562 690 419.674 720 426.9C750 434.126 780 439.31 810 441.824C840 444.337 870 444.023 885 443.945L900 443.788V0H885C870 0 840 0 810 0C780 0 750 0 720 0C690 0 660 0 630 0C600 0 570 0 540 0C510 0 480 0 450 0C420 0 390 0 360 0C330 0 300 0 270 0C240 0 210 0 180 0C150 0 120 0 90 0C60 0 30 0 15 0H0V399.802Z" fill="#FFC964"/>
<path d="M0 360.614L15 357.729C30 354.768 60 348.998 90 346.72C120 344.443 150 345.658 180 352.035C210 358.336 240 369.724 270 375.418C300 381.112 330 381.112 360 377.543C390 374.051 420 366.915 450 360.993C480 355.072 510 350.213 540 347.48C570 344.671 600 343.911 630 349.454C660 355.072 690 366.915 720 370.103C750 373.292 780 367.674 810 363.498C840 359.323 870 356.59 885 355.147L900 353.781V0H885C870 0 840 0 810 0C780 0 750 0 720 0C690 0 660 0 630 0C600 0 570 0 540 0C510 0 480 0 450 0C420 0 390 0 360 0C330 0 300 0 270 0C240 0 210 0 180 0C150 0 120 0 90 0C60 0 30 0 15 0H0V360.614Z" fill="#FFC352"/>
<path d="M0 280.693H15C30 280.693 60 280.693 90 284.076C120 287.387 150 294.152 180 295.088C210 296.023 240 291.273 270 289.114C300 286.955 330 287.387 360 293.073C390 298.686 420 309.482 450 309.986C480 310.418 510 300.63 540 299.55C570 298.471 600 306.1 630 306.819C660 307.539 690 301.349 720 297.823C750 294.368 780 293.648 810 292.065C840 290.554 870 288.106 885 286.955L900 285.731V0H885C870 0 840 0 810 0C780 0 750 0 720 0C690 0 660 0 630 0C600 0 570 0 540 0C510 0 480 0 450 0C420 0 390 0 360 0C330 0 300 0 270 0C240 0 210 0 180 0C150 0 120 0 90 0C60 0 30 0 15 0H0V280.693Z" fill="#FFBC40"/>
<path d="M0 244.962L15 241.126C30 237.358 60 229.686 90 229.955C120 230.157 150 238.232 180 241.126C210 244.087 240 241.799 270 239.915C300 238.031 330 236.415 360 236.55C390 236.685 420 238.434 450 240.453C480 242.472 510 244.76 540 241.934C570 239.107 600 231.301 630 229.282C660 227.263 690 231.032 720 232.512C750 233.993 780 233.051 810 235.406C840 237.761 870 243.414 885 246.174L900 249V0H885C870 0 840 0 810 0C780 0 750 0 720 0C690 0 660 0 630 0C600 0 570 0 540 0C510 0 480 0 450 0C420 0 390 0 360 0C330 0 300 0 270 0C240 0 210 0 180 0C150 0 120 0 90 0C60 0 30 0 15 0H0V244.962Z" fill="#FFB52A"/>
<path d="M0 170.328L15 171.763C30 173.261 60 176.131 90 181.247C120 186.363 150 193.6 180 196.658C210 199.652 240 198.405 270 198.904C300 199.465 330 201.711 360 197.469C390 193.226 420 182.37 450 178.626C480 174.883 510 178.252 540 179.063C570 179.874 600 178.252 630 179.25C660 180.311 690 184.055 720 187.985C750 191.978 780 196.096 810 196.845C840 197.593 870 194.848 885 193.538L900 192.165V0H885C870 0 840 0 810 0C780 0 750 0 720 0C690 0 660 0 630 0C600 0 570 0 540 0C510 0 480 0 450 0C420 0 390 0 360 0C330 0 300 0 270 0C240 0 210 0 180 0C150 0 120 0 90 0C60 0 30 0 15 0H0V170.328Z" fill="#FFAE03"/>
</svg>
