<svg 
id="visual" 
viewBox="0 0 900 600"
width="900" 
height="600" 
xmlns="http://www.w3.org/2000/svg" 
xmlns:xlink="http://www.w3.org/1999/xlink" 
version="1.1">
<path d="M0 365L21.5 368.5C43 372 86 379 128.8 370.8C171.7 362.7 214.3 339.3 257.2 341.5C300 343.7 343 371.3 385.8 371C428.7 370.7 471.3 342.3 514.2 329.2C557 316 600 318 642.8 324.3C685.7 330.7 728.3 341.3 771.2 342.5C814 343.7 857 335.3 878.5 331.2L900 327L900 0L878.5 0C857 0 814 0 771.2 0C728.3 0 685.7 0 642.8 0C600 0 557 0 514.2 0C471.3 0 428.7 0 385.8 0C343 0 300 0 257.2 0C214.3 0 171.7 0 128.8 0C86 0 43 0 21.5 0L0 0Z" fill="#233057"></path>
<path d="M0 342L21.5 334C43 326 86 310 128.8 311.5C171.7 313 214.3 332 257.2 337C300 342 343 333 385.8 323.2C428.7 313.3 471.3 302.7 514.2 302.8C557 303 600 314 642.8 322.8C685.7 331.7 728.3 338.3 771.2 339.5C814 340.7 857 336.3 878.5 334.2L900 332L900 0L878.5 0C857 0 814 0 771.2 0C728.3 0 685.7 0 642.8 0C600 0 557 0 514.2 0C471.3 0 428.7 0 385.8 0C343 0 300 0 257.2 0C214.3 0 171.7 0 128.8 0C86 0 43 0 21.5 0L0 0Z" fill="#1a2544"></path>
<path d="M0 267L21.5 265C43 263 86 259 128.8 262.7C171.7 266.3 214.3 277.7 257.2 271.5C300 265.3 343 241.7 385.8 227.7C428.7 213.7 471.3 209.3 514.2 205.7C557 202 600 199 642.8 210.2C685.7 221.3 728.3 246.7 771.2 256C814 265.3 857 258.7 878.5 255.3L900 252L900 0L878.5 0C857 0 814 0 771.2 0C728.3 0 685.7 0 642.8 0C600 0 557 0 514.2 0C471.3 0 428.7 0 385.8 0C343 0 300 0 257.2 0C214.3 0 171.7 0 128.8 0C86 0 43 0 21.5 0L0 0Z" fill="#121a31"></path>
<path d="M0 152L21.5 164.5C43 177 86 202 128.8 208.7C171.7 215.3 214.3 203.7 257.2 199.5C300 195.3 343 198.7 385.8 197C428.7 195.3 471.3 188.7 514.2 178.8C557 169 600 156 642.8 157C685.7 158 728.3 173 771.2 174.2C814 175.3 857 162.7 878.5 156.3L900 150L900 0L878.5 0C857 0 814 0 771.2 0C728.3 0 685.7 0 642.8 0C600 0 557 0 514.2 0C471.3 0 428.7 0 385.8 0C343 0 300 0 257.2 0C214.3 0 171.7 0 128.8 0C86 0 43 0 21.5 0L0 0Z" fill="#0e1326"></path>
<path d="M0 125L21.5 128.7C43 132.3 86 139.7 128.8 141.3C171.7 143 214.3 139 257.2 141.7C300 144.3 343 153.7 385.8 147.2C428.7 140.7 471.3 118.3 514.2 106.3C557 94.3 600 92.7 642.8 100.7C685.7 108.7 728.3 126.3 771.2 133.5C814 140.7 857 137.3 878.5 135.7L900 134L900 0L878.5 0C857 0 814 0 771.2 0C728.3 0 685.7 0 642.8 0C600 0 557 0 514.2 0C471.3 0 428.7 0 385.8 0C343 0 300 0 257.2 0C214.3 0 171.7 0 128.8 0C86 0 43 0 21.5 0L0 0Z" fill="#0e1223"></path>
<path d="M0 43L21.5 52.3C43 61.7 86 80.3 128.8 83.5C171.7 86.7 214.3 74.3 257.2 67.5C300 60.7 343 59.3 385.8 60.7C428.7 62 471.3 66 514.2 69.7C557 73.3 600 76.7 642.8 71.2C685.7 65.7 728.3 51.3 771.2 52.2C814 53 857 69 878.5 77L900 85L900 0L878.5 0C857 0 814 0 771.2 0C728.3 0 685.7 0 642.8 0C600 0 557 0 514.2 0C471.3 0 428.7 0 385.8 0C343 0 300 0 257.2 0C214.3 0 171.7 0 128.8 0C86 0 43 0 21.5 0L0 0Z" fill="#0d101f"></path>
</svg>