<svg width="900" height="348" viewBox="0 0 900 348" fill="none" xmlns="http://www.w3.org/2000/svg">
<path d="M0 318.06L21.5 310.62C43 303.18 86 288.3 128.8 289.695C171.7 291.09 214.3 308.76 257.2 313.41C300 318.06 343 309.69 385.8 300.576C428.7 291.369 471.3 281.511 514.2 281.604C557 281.79 600 292.02 642.8 300.204C685.7 308.481 728.3 314.619 771.2 315.735C814 316.851 857 312.759 878.5 310.806L900 308.76V0H878.5C857 0 814 0 771.2 0C728.3 0 685.7 0 642.8 0C600 0 557 0 514.2 0C471.3 0 428.7 0 385.8 0C343 0 300 0 257.2 0C214.3 0 171.7 0 128.8 0C86 0 43 0 21.5 0H0V318.06Z" fill="#1A2544"/>
<path d="M0 248.31L21.5 246.45C43 244.59 86 240.87 128.8 244.311C171.7 247.659 214.3 258.261 257.2 252.495C300 246.729 343 224.781 385.8 211.761C428.7 198.741 471.3 194.649 514.2 191.301C557 187.86 600 185.07 642.8 195.486C685.7 205.809 728.3 229.431 771.2 238.08C814 246.729 857 240.591 878.5 237.429L900 234.36V0H878.5C857 0 814 0 771.2 0C728.3 0 685.7 0 642.8 0C600 0 557 0 514.2 0C471.3 0 428.7 0 385.8 0C343 0 300 0 257.2 0C214.3 0 171.7 0 128.8 0C86 0 43 0 21.5 0H0V248.31Z" fill="#121A31"/>
<path d="M0 141.36L21.5 152.985C43 164.61 86 187.86 128.8 194.091C171.7 200.229 214.3 189.441 257.2 185.535C300 181.629 343 184.791 385.8 183.21C428.7 181.629 471.3 175.491 514.2 166.284C557 157.17 600 145.08 642.8 146.01C685.7 146.94 728.3 160.89 771.2 162.006C814 163.029 857 151.311 878.5 145.359L900 139.5V0H878.5C857 0 814 0 771.2 0C728.3 0 685.7 0 642.8 0C600 0 557 0 514.2 0C471.3 0 428.7 0 385.8 0C343 0 300 0 257.2 0C214.3 0 171.7 0 128.8 0C86 0 43 0 21.5 0H0V141.36Z" fill="#0E1326"/>
<path d="M0 116.25L21.5 119.691C43 123.039 86 129.921 128.8 131.409C171.7 132.99 214.3 129.27 257.2 131.781C300 134.199 343 142.941 385.8 136.896C428.7 130.851 471.3 110.019 514.2 98.859C557 87.699 600 86.211 642.8 93.651C685.7 101.091 728.3 117.459 771.2 124.155C814 130.851 857 127.689 878.5 126.201L900 124.62V0H878.5C857 0 814 0 771.2 0C728.3 0 685.7 0 642.8 0C600 0 557 0 514.2 0C471.3 0 428.7 0 385.8 0C343 0 300 0 257.2 0C214.3 0 171.7 0 128.8 0C86 0 43 0 21.5 0H0V116.25Z" fill="#0E1223"/>
<path d="M0 39.99L21.5 48.639C43 57.381 86 74.679 128.8 77.655C171.7 80.631 214.3 69.099 257.2 62.775C300 56.451 343 55.149 385.8 56.451C428.7 57.66 471.3 61.38 514.2 64.821C557 68.169 600 71.331 642.8 66.216C685.7 61.101 728.3 47.709 771.2 48.546C814 49.29 857 64.17 878.5 71.61L900 79.05V0H878.5C857 0 814 0 771.2 0C728.3 0 685.7 0 642.8 0C600 0 557 0 514.2 0C471.3 0 428.7 0 385.8 0C343 0 300 0 257.2 0C214.3 0 171.7 0 128.8 0C86 0 43 0 21.5 0H0V39.99Z" fill="#0D101F"/>
</svg>
